<svg xmlns="http://www.w3.org/2000/svg" viewBox="0 0 128 128" role="img" aria-label="JavaScript Notebooks icon">
  <defs>
    <linearGradient id="g" x1="0%" y1="0%" x2="100%" y2="100%">
      <stop offset="0%" stop-color="#7c3aed" />
      <stop offset="100%" stop-color="#22d3ee" />
    </linearGradient>
  </defs>
  <rect width="128" height="128" rx="28" fill="#081122" />
  <rect x="10" y="10" width="108" height="108" rx="22" fill="url(#g)" opacity="0.18" />
  <path d="M36 28h34c17.673 0 32 14.327 32 32v40H70c-18.778 0-34-15.222-34-34V28Z" fill="url(#g)" />
  <path d="M57 44h12v34.3c0 12.2-7.2 18.7-17.8 18.7-4.8 0-9.4-1.3-12.5-3.9l5.2-9.3c1.7 1.5 3.9 2.3 6.2 2.3 4.4 0 6.9-2.6 6.9-7.8V44Zm24.5 42.6c3.4 0 5.7-1.4 5.7-4 0-2.8-2.2-3.8-7.3-5.5-8.2-2.8-13.6-6-13.6-14.1 0-8 6.1-13.3 15.6-13.3 6.8 0 11.8 2.3 15.4 6.9l-7.5 6.1c-1.9-2.4-4.4-3.9-8-3.9-3 0-5 1.3-5 3.5 0 2.7 2.8 3.7 8.1 5.6 8.1 2.9 12.9 6.2 12.9 14 0 8-6.3 13.8-16.9 13.8-7.9 0-14.1-3.1-17.5-8.2l8-5.7c2 3.1 4.9 4.8 9.9 4.8Z" fill="#fff6ff" />
</svg>
